<svg width="20" height="20" viewBox="0 0 20 20" fill="none" xmlns="http://www.w3.org/2000/svg">
<path d="M7.22656 11.9417C7.22656 13.0167 8.05156 13.8834 9.07656 13.8834H11.1682C12.0599 13.8834 12.7849 13.125 12.7849 12.1917C12.7849 11.175 12.3432 10.8167 11.6849 10.5834L8.32656 9.4167C7.66823 9.18337 7.22656 8.82503 7.22656 7.80837C7.22656 6.87503 7.95156 6.1167 8.84323 6.1167H10.9349C11.9599 6.1167 12.7849 6.98337 12.7849 8.05837" stroke="#8A8D8E" stroke-width="1.5" stroke-linecap="round" stroke-linejoin="round"/>
<path d="M10 5V15" stroke="#8A8D8E" stroke-width="1.5" stroke-linecap="round" stroke-linejoin="round"/>
<path d="M12.5 18.3332H7.50002C3.33335 18.3332 1.66669 16.6665 1.66669 12.4998V7.49984C1.66669 3.33317 3.33335 1.6665 7.50002 1.6665H12.5C16.6667 1.6665 18.3334 3.33317 18.3334 7.49984V12.4998C18.3334 16.6665 16.6667 18.3332 12.5 18.3332Z" stroke="#8A8D8E" stroke-width="1.5" stroke-linecap="round" stroke-linejoin="round"/>
</svg>
