<svg
  width="18"
  height="18"
  viewBox="0 0 18 18"
  fill="none"
  xmlns="http://www.w3.org/2000/svg"
>
  <path
    d="M4.5726 5.02818L4.58233 5.02735L4.59202 5.02614C4.74414 5.00712 4.90927 5 5.0925 5H9.8925C11.0113 5 11.76 5.2802 12.2324 5.75262C12.7048 6.22504 12.985 6.97372 12.985 8.0925V11.0925C12.985 11.2757 12.9779 11.4409 12.9589 11.593L12.9576 11.6028L12.9568 11.6126C12.8783 12.5344 12.5758 13.1525 12.1096 13.5481C11.6367 13.9494 10.9213 14.185 9.8925 14.185H9.5925C9.24762 14.185 8.91943 14.3491 8.7125 14.625L7.8125 15.825L7.81182 15.8259C7.6924 15.9859 7.57177 16.0244 7.4925 16.0244C7.41323 16.0244 7.2926 15.9859 7.17318 15.8259L7.1725 15.825L6.2725 14.625L6.27252 14.625L6.26968 14.6213C6.16253 14.4812 6.0163 14.3781 5.88334 14.3109C5.75069 14.2439 5.5768 14.185 5.3925 14.185H5.0925C3.90446 14.185 3.17686 14.0291 2.72794 13.6371C2.29582 13.2598 2 12.5495 2 11.0925V8.0925C2 7.06456 2.23708 6.34893 2.63938 5.87573C3.0362 5.40897 3.65479 5.10666 4.5726 5.02818ZM3.625 9.75C3.625 10.4354 4.1756 11 4.875 11C5.56364 11 6.125 10.4386 6.125 9.75C6.125 9.06136 5.56364 8.5 4.875 8.5C4.18636 8.5 3.625 9.06136 3.625 9.75ZM6.2425 9.75C6.2425 10.4354 6.7931 11 7.4925 11C8.1919 11 8.7425 10.4354 8.7425 9.75C8.7425 9.06136 8.18114 8.5 7.4925 8.5C6.80386 8.5 6.2425 9.06136 6.2425 9.75ZM8.8675 9.75C8.8675 10.4354 9.4181 11 10.1175 11C10.8061 11 11.3675 10.4386 11.3675 9.75C11.3675 9.06136 10.8061 8.5 10.1175 8.5C9.42886 8.5 8.8675 9.06136 8.8675 9.75Z"
    fill="#242424"
    stroke="#242424"
  />
  <path
    d="M15.11 8.09385V8.0925C15.11 6.49822 14.652 5.17735 13.7298 4.2552C12.8077 3.33304 11.4868 2.875 9.8925 2.875L9.89168 2.875L5.63954 2.88198C6.11104 2.32113 6.88644 2 8.0925 2H12.8925C14.0113 2 14.76 2.2802 15.2324 2.75262C15.7048 3.22504 15.985 3.97372 15.985 5.0925V8.0925C15.985 9.30527 15.6638 10.0812 15.1034 10.5527L15.11 8.09385Z"
    fill="#242424"
    stroke="#242424"
  />
</svg>
