<svg
  width="18"
  height="18"
  viewBox="0 0 18 18"
  fill="none"
  xmlns="http://www.w3.org/2000/svg"
>
  <path
    d="M14.0767 11.1255L14.078 11.1277C14.2908 11.4769 14.3276 11.8859 14.1871 12.2587C14.0438 12.6391 13.7506 12.9237 13.3739 13.0475L13.3739 13.0475L13.3711 13.0484C11.9692 13.5181 10.493 13.75 9.01499 13.75C7.537 13.75 6.06161 13.5181 4.66103 13.0416L4.66002 13.0413C4.22797 12.8953 3.9294 12.6047 3.8082 12.2664L3.80822 12.2664L3.80678 12.2625C3.67724 11.9101 3.71512 11.5125 3.94611 11.125C3.94634 11.1246 3.94657 11.1242 3.9468 11.1238L4.70283 9.87375L4.70288 9.87379L4.70688 9.86694C4.8163 9.67935 4.90527 9.43432 4.96653 9.20899C5.0277 8.98403 5.07499 8.72819 5.07499 8.5125V6.615C5.07499 5.07404 5.9716 3.73487 7.27268 3.08767L7.411 3.01886L7.4864 2.88402C7.78928 2.34233 8.35864 2 8.99249 2C9.63811 2 10.1913 2.33124 10.4922 2.86353L10.5698 3.00079L10.7121 3.06872C12.0382 3.70178 12.955 5.05332 12.955 6.615V8.5125C12.955 8.72818 13.0023 8.98396 13.0633 9.20937C13.1246 9.43596 13.213 9.68049 13.3201 9.8693L13.32 9.86939L13.3267 9.88051L14.0767 11.1255ZM8.99249 1.5C8.17499 1.5 7.43999 1.9425 7.04999 2.64L13.53 13.5225C14.055 13.35 14.46 12.9525 14.655 12.435C14.85 11.9175 14.7975 11.3475 14.505 10.8675L13.755 9.6225C13.5975 9.345 13.455 8.82 13.455 8.5125V6.615C13.455 4.8525 12.42 3.33 10.9275 2.6175C10.5375 1.9275 9.81749 1.5 8.99249 1.5Z"
    fill="#242424"
    stroke="#242424"
  />
  <path
    d="M9.00001 16C8.60349 16 8.21271 15.8611 7.91066 15.6148C8.27425 15.6417 8.64387 15.6575 9.01501 15.6575C9.37786 15.6575 9.7392 15.6419 10.0946 15.6152C9.79368 15.8562 9.4128 16 9.00001 16Z"
    fill="#242424"
    stroke="#242424"
  />
</svg>
